<svg xmlns="http://www.w3.org/2000/svg" xmlns:xlink="http://www.w3.org/1999/xlink" width="1000" zoomAndPan="magnify" viewBox="0 0 750 374.999991" height="500" preserveAspectRatio="xMidYMid meet" version="1.0"><defs><g/><clipPath id="6aec1355d1"><path d="M 110 43.285156 L 218 43.285156 L 218 188 L 110 188 Z M 110 43.285156 " clip-rule="nonzero"/></clipPath><clipPath id="bdf9ec914f"><path d="M 20.277344 134 L 165 134 L 165 242 L 20.277344 242 Z M 20.277344 134 " clip-rule="nonzero"/></clipPath></defs><rect x="-75" width="900" fill="#ffffff" y="-37.499999" height="449.999989" fill-opacity="1"/><rect x="-75" width="900" fill="#ffffff" y="-37.499999" height="449.999989" fill-opacity="1"/><path fill="#a6a6a6" d="M 195.90625 331.5625 L 132.996094 331.5625 C 120.855469 331.5625 110.925781 321.628906 110.925781 309.488281 L 110.925781 278.953125 L 125.640625 278.953125 L 125.640625 309.488281 C 125.640625 313.535156 128.949219 316.84375 132.996094 316.84375 L 195.90625 316.84375 C 199.953125 316.84375 203.261719 313.535156 203.261719 309.488281 L 203.261719 187.496094 L 217.976562 187.496094 L 217.976562 309.488281 C 217.976562 321.628906 208.117188 331.5625 195.90625 331.5625 Z M 195.90625 331.5625 " fill-opacity="1" fill-rule="nonzero"/><g clip-path="url(#6aec1355d1)"><path fill="#03989e" d="M 125.640625 187.496094 L 110.925781 187.496094 L 110.925781 65.507812 C 110.925781 53.367188 120.855469 43.433594 132.996094 43.433594 L 195.90625 43.433594 C 208.046875 43.433594 217.976562 53.367188 217.976562 65.507812 L 217.976562 96.039062 L 203.261719 96.039062 L 203.261719 65.507812 C 203.261719 61.460938 199.953125 58.148438 195.90625 58.148438 L 132.996094 58.148438 C 128.949219 58.148438 125.640625 61.460938 125.640625 65.507812 Z M 125.640625 187.496094 " fill-opacity="1" fill-rule="nonzero"/></g><g clip-path="url(#bdf9ec914f)"><path fill="#03989e" d="M 164.488281 241.0625 L 42.496094 241.0625 C 30.355469 241.0625 20.425781 231.128906 20.425781 218.988281 L 20.425781 156.078125 C 20.425781 143.941406 30.355469 134.007812 42.496094 134.007812 L 73.03125 134.007812 L 73.03125 148.722656 L 42.496094 148.722656 C 38.449219 148.722656 35.140625 152.03125 35.140625 156.078125 L 35.140625 218.988281 C 35.140625 223.035156 38.449219 226.347656 42.496094 226.347656 L 164.488281 226.347656 Z M 164.488281 241.0625 " fill-opacity="1" fill-rule="nonzero"/></g><path fill="#a6a6a6" d="M 286.480469 241.0625 L 255.945312 241.0625 L 255.945312 226.347656 L 286.480469 226.347656 C 290.523438 226.347656 293.835938 223.035156 293.835938 218.988281 L 293.835938 156.078125 C 293.835938 152.03125 290.523438 148.722656 286.480469 148.722656 L 164.488281 148.722656 L 164.488281 134.007812 L 286.480469 134.007812 C 298.617188 134.007812 308.550781 143.941406 308.550781 156.078125 L 308.550781 218.988281 C 308.550781 231.128906 298.617188 241.0625 286.480469 241.0625 Z M 286.480469 241.0625 " fill-opacity="1" fill-rule="nonzero"/><g fill="#03989e" fill-opacity="1"><g transform="translate(340.346443, 215.249986)"><g><path d="M 38.078125 -11.0625 L 13.375 -11.0625 L 8.6875 0 L 0.0625 0 L 21.703125 -49 L 30.171875 -49 L 51.59375 0 L 42.765625 0 Z M 34.9375 -18.40625 L 25.6875 -40.1875 L 16.453125 -18.40625 Z M 34.9375 -18.40625 "/></g></g></g><g fill="#03989e" fill-opacity="1"><g transform="translate(402.503622, 215.249986)"><g><path d="M 22.546875 -49.34375 C 28.890625 -49.34375 34.601562 -47.664062 39.6875 -44.3125 L 36.265625 -37.03125 C 31.265625 -40.0625 26.476562 -41.578125 21.90625 -41.578125 C 19.4375 -41.578125 17.488281 -41.132812 16.0625 -40.25 C 14.644531 -39.363281 13.9375 -38.101562 13.9375 -36.46875 C 13.9375 -34.832031 14.585938 -33.441406 15.890625 -32.296875 C 17.191406 -31.160156 18.820312 -30.320312 20.78125 -29.78125 C 22.75 -29.25 24.875 -28.570312 27.15625 -27.75 C 29.445312 -26.9375 31.570312 -26.070312 33.53125 -25.15625 C 35.488281 -24.25 37.109375 -22.828125 38.390625 -20.890625 C 39.671875 -18.953125 40.3125 -16.609375 40.3125 -13.859375 C 40.3125 -9.566406 38.597656 -6.132812 35.171875 -3.5625 C 31.742188 -1 27.300781 0.28125 21.84375 0.28125 C 18.101562 0.28125 14.484375 -0.414062 10.984375 -1.8125 C 7.484375 -3.21875 4.425781 -5.109375 1.8125 -7.484375 L 5.390625 -14.625 C 7.859375 -12.34375 10.570312 -10.582031 13.53125 -9.34375 C 16.5 -8.101562 19.316406 -7.484375 21.984375 -7.484375 C 24.867188 -7.484375 27.117188 -8.007812 28.734375 -9.0625 C 30.347656 -10.113281 31.15625 -11.570312 31.15625 -13.4375 C 31.15625 -15.113281 30.5 -16.523438 29.1875 -17.671875 C 27.882812 -18.816406 26.25 -19.65625 24.28125 -20.1875 C 22.320312 -20.726562 20.195312 -21.382812 17.90625 -22.15625 C 15.625 -22.925781 13.503906 -23.742188 11.546875 -24.609375 C 9.585938 -25.472656 7.953125 -26.859375 6.640625 -28.765625 C 5.335938 -30.679688 4.6875 -32.992188 4.6875 -35.703125 C 4.6875 -39.859375 6.316406 -43.171875 9.578125 -45.640625 C 12.847656 -48.109375 17.171875 -49.34375 22.546875 -49.34375 Z M 22.546875 -49.34375 "/></g></g></g><g fill="#03989e" fill-opacity="1"><g transform="translate(456.541252, 215.249986)"><g><path d="M 14.703125 0 L 6.4375 0 L 6.4375 -49 L 14.703125 -49 Z M 14.703125 0 "/></g></g></g><g fill="#03989e" fill-opacity="1"><g transform="translate(488.180113, 215.249986)"><g><path d="M 22.546875 -49.34375 C 28.890625 -49.34375 34.601562 -47.664062 39.6875 -44.3125 L 36.265625 -37.03125 C 31.265625 -40.0625 26.476562 -41.578125 21.90625 -41.578125 C 19.4375 -41.578125 17.488281 -41.132812 16.0625 -40.25 C 14.644531 -39.363281 13.9375 -38.101562 13.9375 -36.46875 C 13.9375 -34.832031 14.585938 -33.441406 15.890625 -32.296875 C 17.191406 -31.160156 18.820312 -30.320312 20.78125 -29.78125 C 22.75 -29.25 24.875 -28.570312 27.15625 -27.75 C 29.445312 -26.9375 31.570312 -26.070312 33.53125 -25.15625 C 35.488281 -24.25 37.109375 -22.828125 38.390625 -20.890625 C 39.671875 -18.953125 40.3125 -16.609375 40.3125 -13.859375 C 40.3125 -9.566406 38.597656 -6.132812 35.171875 -3.5625 C 31.742188 -1 27.300781 0.28125 21.84375 0.28125 C 18.101562 0.28125 14.484375 -0.414062 10.984375 -1.8125 C 7.484375 -3.21875 4.425781 -5.109375 1.8125 -7.484375 L 5.390625 -14.625 C 7.859375 -12.34375 10.570312 -10.582031 13.53125 -9.34375 C 16.5 -8.101562 19.316406 -7.484375 21.984375 -7.484375 C 24.867188 -7.484375 27.117188 -8.007812 28.734375 -9.0625 C 30.347656 -10.113281 31.15625 -11.570312 31.15625 -13.4375 C 31.15625 -15.113281 30.5 -16.523438 29.1875 -17.671875 C 27.882812 -18.816406 26.25 -19.65625 24.28125 -20.1875 C 22.320312 -20.726562 20.195312 -21.382812 17.90625 -22.15625 C 15.625 -22.925781 13.503906 -23.742188 11.546875 -24.609375 C 9.585938 -25.472656 7.953125 -26.859375 6.640625 -28.765625 C 5.335938 -30.679688 4.6875 -32.992188 4.6875 -35.703125 C 4.6875 -39.859375 6.316406 -43.171875 9.578125 -45.640625 C 12.847656 -48.109375 17.171875 -49.34375 22.546875 -49.34375 Z M 22.546875 -49.34375 "/></g></g></g><g fill="#03989e" fill-opacity="1"><g transform="translate(542.217737, 215.249986)"><g><path d="M 41.4375 -41.578125 L 14.703125 -41.578125 L 14.703125 -28.34375 L 38.640625 -28.34375 L 38.640625 -20.9375 L 14.703125 -20.9375 L 14.703125 -7.421875 L 42.28125 -7.421875 L 42.28125 0 L 6.4375 0 L 6.4375 -49 L 41.4375 -49 Z M 41.4375 -41.578125 "/></g></g></g><g fill="#03989e" fill-opacity="1"><g transform="translate(598.63523, 215.249986)"><g><path d="M 39.96875 -24.078125 L 47.1875 -24.078125 L 47.1875 -6.015625 C 44.664062 -4.109375 41.6875 -2.570312 38.25 -1.40625 C 34.820312 -0.238281 31.453125 0.34375 28.140625 0.34375 C 20.910156 0.34375 14.804688 -2.046875 9.828125 -6.828125 C 4.859375 -11.609375 2.375 -17.5 2.375 -24.5 C 2.375 -31.5 4.894531 -37.363281 9.9375 -42.09375 C 14.976562 -46.832031 21.207031 -49.203125 28.625 -49.203125 C 32.082031 -49.203125 35.476562 -48.582031 38.8125 -47.34375 C 42.144531 -46.113281 45.023438 -44.445312 47.453125 -42.34375 L 42.765625 -36.265625 C 38.753906 -39.992188 34.039062 -41.859375 28.625 -41.859375 C 23.632812 -41.859375 19.410156 -40.175781 15.953125 -36.8125 C 12.503906 -33.457031 10.78125 -29.351562 10.78125 -24.5 C 10.78125 -19.601562 12.515625 -15.472656 15.984375 -12.109375 C 19.460938 -8.742188 23.703125 -7.0625 28.703125 -7.0625 C 32.484375 -7.0625 36.238281 -8.1875 39.96875 -10.4375 Z M 39.96875 -24.078125 "/></g></g></g><g fill="#a6a6a6" fill-opacity="1"><g transform="translate(246.862756, 289.682091)"><g><path d="M 16.3125 -4.734375 L 5.734375 -4.734375 L 3.71875 0 L 0.03125 0 L 9.296875 -21 L 12.9375 -21 L 22.109375 0 L 18.328125 0 Z M 14.96875 -7.890625 L 11.015625 -17.21875 L 7.046875 -7.890625 Z M 14.96875 -7.890625 "/></g></g></g><g fill="#a6a6a6" fill-opacity="1"><g transform="translate(276.502734, 289.682091)"><g><path d="M 9.65625 -21.15625 C 12.375 -21.15625 14.828125 -20.429688 17.015625 -18.984375 L 15.546875 -15.875 C 13.398438 -17.164062 11.347656 -17.8125 9.390625 -17.8125 C 8.328125 -17.8125 7.488281 -17.625 6.875 -17.25 C 6.269531 -16.875 5.96875 -16.332031 5.96875 -15.625 C 5.96875 -14.925781 6.25 -14.332031 6.8125 -13.84375 C 7.375 -13.351562 8.070312 -12.992188 8.90625 -12.765625 C 9.75 -12.535156 10.660156 -12.242188 11.640625 -11.890625 C 12.617188 -11.546875 13.523438 -11.175781 14.359375 -10.78125 C 15.203125 -10.394531 15.898438 -9.785156 16.453125 -8.953125 C 17.003906 -8.117188 17.28125 -7.113281 17.28125 -5.9375 C 17.28125 -4.101562 16.546875 -2.632812 15.078125 -1.53125 C 13.609375 -0.425781 11.703125 0.125 9.359375 0.125 C 7.753906 0.125 6.203125 -0.175781 4.703125 -0.78125 C 3.203125 -1.382812 1.894531 -2.191406 0.78125 -3.203125 L 2.3125 -6.265625 C 3.375 -5.285156 4.535156 -4.53125 5.796875 -4 C 7.066406 -3.46875 8.273438 -3.203125 9.421875 -3.203125 C 10.660156 -3.203125 11.625 -3.425781 12.3125 -3.875 C 13 -4.332031 13.34375 -4.960938 13.34375 -5.765625 C 13.34375 -6.484375 13.0625 -7.085938 12.5 -7.578125 C 11.945312 -8.066406 11.25 -8.425781 10.40625 -8.65625 C 9.570312 -8.882812 8.660156 -9.160156 7.671875 -9.484375 C 6.691406 -9.816406 5.78125 -10.164062 4.9375 -10.53125 C 4.101562 -10.90625 3.40625 -11.503906 2.84375 -12.328125 C 2.289062 -13.148438 2.015625 -14.140625 2.015625 -15.296875 C 2.015625 -17.078125 2.710938 -18.5 4.109375 -19.5625 C 5.503906 -20.625 7.351562 -21.15625 9.65625 -21.15625 Z M 9.65625 -21.15625 "/></g></g></g><g fill="#a6a6a6" fill-opacity="1"><g transform="translate(302.662713, 289.682091)"><g><path d="M 6.296875 0 L 2.765625 0 L 2.765625 -21 L 6.296875 -21 Z M 6.296875 0 "/></g></g></g><g fill="#a6a6a6" fill-opacity="1"><g transform="translate(319.222702, 289.682091)"><g><path d="M 9.65625 -21.15625 C 12.375 -21.15625 14.828125 -20.429688 17.015625 -18.984375 L 15.546875 -15.875 C 13.398438 -17.164062 11.347656 -17.8125 9.390625 -17.8125 C 8.328125 -17.8125 7.488281 -17.625 6.875 -17.25 C 6.269531 -16.875 5.96875 -16.332031 5.96875 -15.625 C 5.96875 -14.925781 6.25 -14.332031 6.8125 -13.84375 C 7.375 -13.351562 8.070312 -12.992188 8.90625 -12.765625 C 9.75 -12.535156 10.660156 -12.242188 11.640625 -11.890625 C 12.617188 -11.546875 13.523438 -11.175781 14.359375 -10.78125 C 15.203125 -10.394531 15.898438 -9.785156 16.453125 -8.953125 C 17.003906 -8.117188 17.28125 -7.113281 17.28125 -5.9375 C 17.28125 -4.101562 16.546875 -2.632812 15.078125 -1.53125 C 13.609375 -0.425781 11.703125 0.125 9.359375 0.125 C 7.753906 0.125 6.203125 -0.175781 4.703125 -0.78125 C 3.203125 -1.382812 1.894531 -2.191406 0.78125 -3.203125 L 2.3125 -6.265625 C 3.375 -5.285156 4.535156 -4.53125 5.796875 -4 C 7.066406 -3.46875 8.273438 -3.203125 9.421875 -3.203125 C 10.660156 -3.203125 11.625 -3.425781 12.3125 -3.875 C 13 -4.332031 13.34375 -4.960938 13.34375 -5.765625 C 13.34375 -6.484375 13.0625 -7.085938 12.5 -7.578125 C 11.945312 -8.066406 11.25 -8.425781 10.40625 -8.65625 C 9.570312 -8.882812 8.660156 -9.160156 7.671875 -9.484375 C 6.691406 -9.816406 5.78125 -10.164062 4.9375 -10.53125 C 4.101562 -10.90625 3.40625 -11.503906 2.84375 -12.328125 C 2.289062 -13.148438 2.015625 -14.140625 2.015625 -15.296875 C 2.015625 -17.078125 2.710938 -18.5 4.109375 -19.5625 C 5.503906 -20.625 7.351562 -21.15625 9.65625 -21.15625 Z M 9.65625 -21.15625 "/></g></g></g><g fill="#a6a6a6" fill-opacity="1"><g transform="translate(345.382681, 289.682091)"><g><path d="M 17.09375 -17.8125 L 10.4375 -17.8125 L 10.4375 0 L 6.90625 0 L 6.90625 -17.8125 L 0.265625 -17.8125 L 0.265625 -21 L 17.09375 -21 Z M 17.09375 -17.8125 "/></g></g></g><g fill="#a6a6a6" fill-opacity="1"><g transform="translate(370.252659, 289.682091)"><g><path d="M 17.765625 -17.8125 L 6.296875 -17.8125 L 6.296875 -12.15625 L 16.5625 -12.15625 L 16.5625 -8.96875 L 6.296875 -8.96875 L 6.296875 -3.1875 L 18.125 -3.1875 L 18.125 0 L 2.765625 0 L 2.765625 -21 L 17.765625 -21 Z M 17.765625 -17.8125 "/></g></g></g><g fill="#a6a6a6" fill-opacity="1"><g transform="translate(397.432639, 289.682091)"><g><path d="M 20.96875 0 L 17.484375 0 L 6.296875 -15.0625 L 6.296875 0 L 2.765625 0 L 2.765625 -21 L 6.234375 -21 L 17.484375 -5.90625 L 17.484375 -21 L 20.96875 -21 Z M 20.96875 0 "/></g></g></g><g fill="#a6a6a6" fill-opacity="1"><g transform="translate(428.692619, 289.682091)"><g><path d="M 12.0625 -21.09375 C 13.539062 -21.09375 14.984375 -20.804688 16.390625 -20.234375 C 17.804688 -19.660156 19.023438 -18.863281 20.046875 -17.84375 L 17.96875 -15.265625 C 17.207031 -16.085938 16.304688 -16.738281 15.265625 -17.21875 C 14.222656 -17.695312 13.175781 -17.9375 12.125 -17.9375 C 10.019531 -17.9375 8.242188 -17.222656 6.796875 -15.796875 C 5.347656 -14.367188 4.625 -12.625 4.625 -10.5625 C 4.625 -8.476562 5.347656 -6.722656 6.796875 -5.296875 C 8.242188 -3.867188 10.019531 -3.15625 12.125 -3.15625 C 14.300781 -3.15625 16.25 -3.984375 17.96875 -5.640625 L 20.0625 -3.296875 C 18.988281 -2.234375 17.726562 -1.390625 16.28125 -0.765625 C 14.84375 -0.148438 13.394531 0.15625 11.9375 0.15625 C 8.851562 0.15625 6.257812 -0.867188 4.15625 -2.921875 C 2.0625 -4.972656 1.015625 -7.507812 1.015625 -10.53125 C 1.015625 -13.507812 2.078125 -16.015625 4.203125 -18.046875 C 6.335938 -20.078125 8.957031 -21.09375 12.0625 -21.09375 Z M 12.0625 -21.09375 "/></g></g></g><g fill="#a6a6a6" fill-opacity="1"><g transform="translate(457.10261, 289.682091)"><g><path d="M 6.296875 0 L 2.765625 0 L 2.765625 -21 L 6.296875 -21 Z M 6.296875 0 "/></g></g></g><g fill="#a6a6a6" fill-opacity="1"><g transform="translate(473.662599, 289.682091)"><g><path d="M 16.3125 -4.734375 L 5.734375 -4.734375 L 3.71875 0 L 0.03125 0 L 9.296875 -21 L 12.9375 -21 L 22.109375 0 L 18.328125 0 Z M 14.96875 -7.890625 L 11.015625 -17.21875 L 7.046875 -7.890625 Z M 14.96875 -7.890625 "/></g></g></g><g fill="#a6a6a6" fill-opacity="1"><g transform="translate(503.302589, 289.682091)"><g/></g></g><g fill="#a6a6a6" fill-opacity="1"><g transform="translate(518.542593, 289.682091)"><g><path d="M 9.65625 -21.15625 C 12.375 -21.15625 14.828125 -20.429688 17.015625 -18.984375 L 15.546875 -15.875 C 13.398438 -17.164062 11.347656 -17.8125 9.390625 -17.8125 C 8.328125 -17.8125 7.488281 -17.625 6.875 -17.25 C 6.269531 -16.875 5.96875 -16.332031 5.96875 -15.625 C 5.96875 -14.925781 6.25 -14.332031 6.8125 -13.84375 C 7.375 -13.351562 8.070312 -12.992188 8.90625 -12.765625 C 9.75 -12.535156 10.660156 -12.242188 11.640625 -11.890625 C 12.617188 -11.546875 13.523438 -11.175781 14.359375 -10.78125 C 15.203125 -10.394531 15.898438 -9.785156 16.453125 -8.953125 C 17.003906 -8.117188 17.28125 -7.113281 17.28125 -5.9375 C 17.28125 -4.101562 16.546875 -2.632812 15.078125 -1.53125 C 13.609375 -0.425781 11.703125 0.125 9.359375 0.125 C 7.753906 0.125 6.203125 -0.175781 4.703125 -0.78125 C 3.203125 -1.382812 1.894531 -2.191406 0.78125 -3.203125 L 2.3125 -6.265625 C 3.375 -5.285156 4.535156 -4.53125 5.796875 -4 C 7.066406 -3.46875 8.273438 -3.203125 9.421875 -3.203125 C 10.660156 -3.203125 11.625 -3.425781 12.3125 -3.875 C 13 -4.332031 13.34375 -4.960938 13.34375 -5.765625 C 13.34375 -6.484375 13.0625 -7.085938 12.5 -7.578125 C 11.945312 -8.066406 11.25 -8.425781 10.40625 -8.65625 C 9.570312 -8.882812 8.660156 -9.160156 7.671875 -9.484375 C 6.691406 -9.816406 5.78125 -10.164062 4.9375 -10.53125 C 4.101562 -10.90625 3.40625 -11.503906 2.84375 -12.328125 C 2.289062 -13.148438 2.015625 -14.140625 2.015625 -15.296875 C 2.015625 -17.078125 2.710938 -18.5 4.109375 -19.5625 C 5.503906 -20.625 7.351562 -21.15625 9.65625 -21.15625 Z M 9.65625 -21.15625 "/></g></g></g><g fill="#a6a6a6" fill-opacity="1"><g transform="translate(544.702572, 289.682091)"><g><path d="M 16.3125 -4.734375 L 5.734375 -4.734375 L 3.71875 0 L 0.03125 0 L 9.296875 -21 L 12.9375 -21 L 22.109375 0 L 18.328125 0 Z M 14.96875 -7.890625 L 11.015625 -17.21875 L 7.046875 -7.890625 Z M 14.96875 -7.890625 "/></g></g></g><g fill="#a6a6a6" fill-opacity="1"><g transform="translate(574.342562, 289.682091)"><g><path d="M 20.96875 0 L 17.484375 0 L 6.296875 -15.0625 L 6.296875 0 L 2.765625 0 L 2.765625 -21 L 6.234375 -21 L 17.484375 -5.90625 L 17.484375 -21 L 20.96875 -21 Z M 20.96875 0 "/></g></g></g><g fill="#a6a6a6" fill-opacity="1"><g transform="translate(605.602555, 289.682091)"><g><path d="M 6.296875 0 L 2.765625 0 L 2.765625 -21 L 6.296875 -21 Z M 6.296875 0 "/></g></g></g><g fill="#a6a6a6" fill-opacity="1"><g transform="translate(622.162544, 289.682091)"><g><path d="M 17.09375 -17.8125 L 10.4375 -17.8125 L 10.4375 0 L 6.90625 0 L 6.90625 -17.8125 L 0.265625 -17.8125 L 0.265625 -21 L 17.09375 -21 Z M 17.09375 -17.8125 "/></g></g></g><g fill="#a6a6a6" fill-opacity="1"><g transform="translate(647.032499, 289.682091)"><g><path d="M 16.3125 -4.734375 L 5.734375 -4.734375 L 3.71875 0 L 0.03125 0 L 9.296875 -21 L 12.9375 -21 L 22.109375 0 L 18.328125 0 Z M 14.96875 -7.890625 L 11.015625 -17.21875 L 7.046875 -7.890625 Z M 14.96875 -7.890625 "/></g></g></g><g fill="#a6a6a6" fill-opacity="1"><g transform="translate(676.672466, 289.682091)"><g><path d="M 16.078125 0 L 12.234375 -6.359375 C 12.035156 -6.335938 11.71875 -6.328125 11.28125 -6.328125 L 6.296875 -6.328125 L 6.296875 0 L 2.765625 0 L 2.765625 -21 L 11.28125 -21 C 13.957031 -21 16.035156 -20.375 17.515625 -19.125 C 18.992188 -17.875 19.734375 -16.109375 19.734375 -13.828125 C 19.734375 -12.148438 19.359375 -10.726562 18.609375 -9.5625 C 17.859375 -8.40625 16.785156 -7.554688 15.390625 -7.015625 L 20.09375 0 Z M 6.296875 -9.515625 L 11.28125 -9.515625 C 14.675781 -9.515625 16.375 -10.921875 16.375 -13.734375 C 16.375 -16.453125 14.675781 -17.8125 11.28125 -17.8125 L 6.296875 -17.8125 Z M 6.296875 -9.515625 "/></g></g></g><g fill="#a6a6a6" fill-opacity="1"><g transform="translate(705.862451, 289.682091)"><g><path d="M 6.296875 0 L 2.765625 0 L 2.765625 -21 L 6.296875 -21 Z M 6.296875 0 "/></g></g></g><g fill="#a6a6a6" fill-opacity="1"><g transform="translate(722.422417, 289.682091)"><g><path d="M 16.3125 -4.734375 L 5.734375 -4.734375 L 3.71875 0 L 0.03125 0 L 9.296875 -21 L 12.9375 -21 L 22.109375 0 L 18.328125 0 Z M 14.96875 -7.890625 L 11.015625 -17.21875 L 7.046875 -7.890625 Z M 14.96875 -7.890625 "/></g></g></g></svg>