<svg xmlns="http://www.w3.org/2000/svg" xmlns:xlink="http://www.w3.org/1999/xlink" width="500" zoomAndPan="magnify" viewBox="0 0 375 374.999991" height="500" preserveAspectRatio="xMidYMid meet" version="1.0"><defs><clipPath id="a53e813587"><path d="M 123 15.1875 L 252 15.1875 L 252 188 L 123 188 Z M 123 15.1875 " clip-rule="nonzero"/></clipPath><clipPath id="c38cda96d0"><path d="M 15.1875 123 L 188 123 L 188 252 L 15.1875 252 Z M 15.1875 123 " clip-rule="nonzero"/></clipPath></defs><rect x="-37.5" width="450" fill="#ffffff" y="-37.499999" height="449.999989" fill-opacity="1"/><rect x="-37.5" width="450" fill="#ffffff" y="-37.499999" height="449.999989" fill-opacity="1"/><path fill="#a6a6a6" d="M 225.039062 359.636719 L 149.871094 359.636719 C 135.367188 359.636719 123.496094 347.769531 123.496094 333.261719 L 123.496094 296.777344 L 141.082031 296.777344 L 141.082031 333.261719 C 141.082031 338.097656 145.035156 342.054688 149.871094 342.054688 L 225.039062 342.054688 C 229.875 342.054688 233.832031 338.097656 233.832031 333.261719 L 233.832031 187.5 L 251.414062 187.5 L 251.414062 333.261719 C 251.414062 347.769531 239.632812 359.636719 225.039062 359.636719 Z M 225.039062 359.636719 " fill-opacity="1" fill-rule="nonzero"/><g clip-path="url(#a53e813587)"><path fill="#03989e" d="M 141.082031 187.5 L 123.496094 187.5 L 123.496094 41.738281 C 123.496094 27.230469 135.367188 15.363281 149.871094 15.363281 L 225.039062 15.363281 C 239.542969 15.363281 251.414062 27.230469 251.414062 41.738281 L 251.414062 78.222656 L 233.832031 78.222656 L 233.832031 41.738281 C 233.832031 36.902344 229.875 32.945312 225.039062 32.945312 L 149.871094 32.945312 C 145.035156 32.945312 141.082031 36.902344 141.082031 41.738281 Z M 141.082031 187.5 " fill-opacity="1" fill-rule="nonzero"/></g><g clip-path="url(#c38cda96d0)"><path fill="#03989e" d="M 187.5 251.5 L 41.738281 251.5 C 27.230469 251.5 15.363281 239.632812 15.363281 225.125 L 15.363281 149.960938 C 15.363281 135.453125 27.230469 123.585938 41.738281 123.585938 L 78.222656 123.585938 L 78.222656 141.167969 L 41.738281 141.167969 C 36.902344 141.167969 32.945312 145.125 32.945312 149.960938 L 32.945312 225.125 C 32.945312 229.960938 36.902344 233.917969 41.738281 233.917969 L 187.5 233.917969 Z M 187.5 251.5 " fill-opacity="1" fill-rule="nonzero"/></g><path fill="#a6a6a6" d="M 333.261719 251.5 L 296.777344 251.5 L 296.777344 233.917969 L 333.261719 233.917969 C 338.097656 233.917969 342.054688 229.960938 342.054688 225.125 L 342.054688 149.960938 C 342.054688 145.125 338.097656 141.167969 333.261719 141.167969 L 187.5 141.167969 L 187.5 123.585938 L 333.261719 123.585938 C 347.769531 123.585938 359.636719 135.453125 359.636719 149.960938 L 359.636719 225.125 C 359.636719 239.632812 347.769531 251.5 333.261719 251.5 Z M 333.261719 251.5 " fill-opacity="1" fill-rule="nonzero"/></svg>