<?xml version="1.0" standalone="no"?>
<!DOCTYPE svg PUBLIC "-//W3C//DTD SVG 20010904//EN"
 "http://www.w3.org/TR/2001/REC-SVG-20010904/DTD/svg10.dtd">
<svg version="1.0" xmlns="http://www.w3.org/2000/svg"
 width="188.000000pt" height="96.000000pt" viewBox="0 0 188.000000 96.000000"
 preserveAspectRatio="xMidYMid meet">
<g transform="translate(0.000000,96.000000) scale(0.100000,-0.100000)"
fill="#000000" stroke="none">
<path d="M433 872 c-10 -6 -11 -26 -4 -83 5 -41 11 -116 13 -168 l3 -94 -65
-18 c-68 -20 -109 -17 -91 5 7 8 7 62 -1 167 -6 85 -12 155 -14 157 -1 2 -12
-2 -24 -8 -17 -9 -20 -17 -15 -38 9 -37 33 -295 28 -304 -2 -4 -20 -10 -41
-13 -67 -12 -72 -15 -72 -46 0 -34 1 -34 66 -14 27 8 50 15 52 15 1 0 2 -72 2
-161 0 -147 1 -160 18 -157 15 3 17 18 14 165 l-3 161 58 12 c32 6 65 14 75
16 18 5 18 3 39 -260 12 -164 19 -186 54 -186 28 0 30 10 15 75 -14 65 -41
378 -33 385 15 13 131 42 141 36 14 -8 25 25 12 38 -5 5 -10 24 -10 42 0 67
-13 124 -27 124 -13 0 -14 -13 -8 -80 8 -89 9 -88 -80 -93 l-40 -2 -8 155 c-4
85 -10 161 -12 168 -5 14 -24 16 -42 4z"/>
<path d="M1337 742 c-37 -180 -164 -517 -196 -517 -21 0 -36 69 -66 295 -32
244 -31 240 -55 240 -11 0 -20 -2 -20 -4 0 -3 7 -37 15 -77 9 -40 27 -160 40
-268 36 -279 42 -303 68 -299 29 4 122 190 176 353 53 159 87 334 68 352 -10
10 -16 -3 -30 -75z"/>
<path d="M825 608 c-2 -7 -6 -51 -9 -98 -5 -91 -24 -176 -53 -236 -21 -42 -47
-64 -62 -49 -5 6 -16 68 -25 139 -9 71 -18 131 -21 134 -3 3 -9 1 -14 -4 -14
-13 17 -274 35 -301 33 -52 79 -21 125 83 l22 49 9 -55 c19 -122 84 -143 154
-49 35 48 30 56 -10 15 -40 -43 -79 -48 -98 -13 -9 15 -14 82 -16 210 -3 154
-6 187 -18 187 -8 0 -16 -6 -19 -12z"/>
<path d="M1386 313 c2 -158 5 -199 15 -201 9 -1 22 24 37 75 44 143 94 234
118 211 2 -3 15 -43 28 -89 37 -136 68 -176 113 -150 16 9 17 10 1 11 -9 0
-29 10 -43 23 -21 18 -29 41 -45 120 -22 108 -31 131 -57 141 -27 11 -61 -33
-99 -125 l-34 -84 0 126 c0 106 -3 128 -16 133 -9 3 -16 6 -17 6 -1 0 -1 -89
-1 -197z"/>
</g>
</svg>
