<svg xmlns="http://www.w3.org/2000/svg" xmlns:xlink="http://www.w3.org/1999/xlink" width="500" zoomAndPan="magnify" viewBox="0 0 375 374.999991" height="500" preserveAspectRatio="xMidYMid meet" version="1.0"><defs><g/><clipPath id="c346ce4467"><path d="M 160 133 L 215 133 L 215 206.441406 L 160 206.441406 Z M 160 133 " clip-rule="nonzero"/></clipPath><clipPath id="83a81f22a5"><path d="M 114.894531 106 L 188 106 L 188 161 L 114.894531 161 Z M 114.894531 106 " clip-rule="nonzero"/></clipPath><clipPath id="ac7b95ea6e"><path d="M 187 106 L 260.394531 106 L 260.394531 161 L 187 161 Z M 187 106 " clip-rule="nonzero"/></clipPath></defs><g clip-path="url(#c346ce4467)"><path fill="#a6a6a6" d="M 203.316406 206.074219 L 171.644531 206.074219 C 165.53125 206.074219 160.53125 201.074219 160.53125 194.960938 L 160.53125 179.585938 L 167.941406 179.585938 L 167.941406 194.960938 C 167.941406 196.996094 169.605469 198.664062 171.644531 198.664062 L 203.316406 198.664062 C 205.351562 198.664062 207.019531 196.996094 207.019531 194.960938 L 207.019531 133.542969 L 214.429688 133.542969 L 214.429688 194.960938 C 214.429688 201.074219 209.464844 206.074219 203.316406 206.074219 Z M 203.316406 206.074219 " fill-opacity="1" fill-rule="nonzero"/></g><path fill="#03989e" d="M 167.941406 133.542969 L 160.53125 133.542969 L 160.53125 72.125 C 160.53125 66.015625 165.53125 61.015625 171.644531 61.015625 L 203.316406 61.015625 C 209.425781 61.015625 214.429688 66.015625 214.429688 72.125 L 214.429688 87.5 L 207.019531 87.5 L 207.019531 72.125 C 207.019531 70.089844 205.351562 68.421875 203.316406 68.421875 L 171.644531 68.421875 C 169.605469 68.421875 167.941406 70.089844 167.941406 72.125 Z M 167.941406 133.542969 " fill-opacity="1" fill-rule="nonzero"/><g clip-path="url(#83a81f22a5)"><path fill="#03989e" d="M 187.496094 160.511719 L 126.082031 160.511719 C 119.96875 160.511719 114.96875 155.511719 114.96875 149.398438 L 114.96875 117.726562 C 114.96875 111.613281 119.96875 106.613281 126.082031 106.613281 L 141.453125 106.613281 L 141.453125 114.023438 L 126.082031 114.023438 C 124.042969 114.023438 122.378906 115.6875 122.378906 117.726562 L 122.378906 149.398438 C 122.378906 151.433594 124.042969 153.101562 126.082031 153.101562 L 187.496094 153.101562 Z M 187.496094 160.511719 " fill-opacity="1" fill-rule="nonzero"/></g><g clip-path="url(#ac7b95ea6e)"><path fill="#a6a6a6" d="M 248.914062 160.511719 L 233.542969 160.511719 L 233.542969 153.101562 L 248.914062 153.101562 C 250.953125 153.101562 252.617188 151.433594 252.617188 149.398438 L 252.617188 117.726562 C 252.617188 115.6875 250.953125 114.023438 248.914062 114.023438 L 187.496094 114.023438 L 187.496094 106.613281 L 248.914062 106.613281 C 255.027344 106.613281 260.027344 111.613281 260.027344 117.726562 L 260.027344 149.398438 C 260.027344 155.511719 255.027344 160.511719 248.914062 160.511719 Z M 248.914062 160.511719 " fill-opacity="1" fill-rule="nonzero"/></g><g fill="#03989e" fill-opacity="1"><g transform="translate(61.832333, 269.945356)"><g><path d="M 30.796875 -8.953125 L 10.8125 -8.953125 L 7.015625 0 L 0.0625 0 L 17.546875 -39.640625 L 24.40625 -39.640625 L 41.734375 0 L 34.59375 0 Z M 28.25 -14.890625 L 20.78125 -32.5 L 13.3125 -14.890625 Z M 28.25 -14.890625 "/></g></g></g><g fill="#03989e" fill-opacity="1"><g transform="translate(112.108642, 269.945356)"><g><path d="M 18.234375 -39.921875 C 23.367188 -39.921875 27.992188 -38.5625 32.109375 -35.84375 L 29.328125 -29.953125 C 25.285156 -32.410156 21.414062 -33.640625 17.71875 -33.640625 C 15.71875 -33.640625 14.140625 -33.28125 12.984375 -32.5625 C 11.835938 -31.84375 11.265625 -30.820312 11.265625 -29.5 C 11.265625 -28.175781 11.789062 -27.050781 12.84375 -26.125 C 13.90625 -25.207031 15.226562 -24.53125 16.8125 -24.09375 C 18.40625 -23.65625 20.125 -23.101562 21.96875 -22.4375 C 23.820312 -21.78125 25.539062 -21.082031 27.125 -20.34375 C 28.707031 -19.613281 30.015625 -18.460938 31.046875 -16.890625 C 32.085938 -15.328125 32.609375 -13.4375 32.609375 -11.21875 C 32.609375 -7.738281 31.222656 -4.960938 28.453125 -2.890625 C 25.679688 -0.816406 22.085938 0.21875 17.671875 0.21875 C 14.648438 0.21875 11.722656 -0.34375 8.890625 -1.46875 C 6.054688 -2.601562 3.582031 -4.132812 1.46875 -6.0625 L 4.359375 -11.828125 C 6.359375 -9.984375 8.554688 -8.5625 10.953125 -7.5625 C 13.347656 -6.5625 15.625 -6.0625 17.78125 -6.0625 C 20.125 -6.0625 21.945312 -6.484375 23.25 -7.328125 C 24.550781 -8.179688 25.203125 -9.363281 25.203125 -10.875 C 25.203125 -12.226562 24.671875 -13.367188 23.609375 -14.296875 C 22.554688 -15.222656 21.234375 -15.898438 19.640625 -16.328125 C 18.054688 -16.765625 16.335938 -17.296875 14.484375 -17.921875 C 12.640625 -18.546875 10.925781 -19.207031 9.34375 -19.90625 C 7.757812 -20.601562 6.4375 -21.722656 5.375 -23.265625 C 4.320312 -24.816406 3.796875 -26.6875 3.796875 -28.875 C 3.796875 -32.238281 5.113281 -34.921875 7.75 -36.921875 C 10.394531 -38.921875 13.890625 -39.921875 18.234375 -39.921875 Z M 18.234375 -39.921875 "/></g></g></g><g fill="#03989e" fill-opacity="1"><g transform="translate(155.81778, 269.945356)"><g><path d="M 11.890625 0 L 5.203125 0 L 5.203125 -39.640625 L 11.890625 -39.640625 Z M 11.890625 0 "/></g></g></g><g fill="#03989e" fill-opacity="1"><g transform="translate(181.410565, 269.945356)"><g><path d="M 18.234375 -39.921875 C 23.367188 -39.921875 27.992188 -38.5625 32.109375 -35.84375 L 29.328125 -29.953125 C 25.285156 -32.410156 21.414062 -33.640625 17.71875 -33.640625 C 15.71875 -33.640625 14.140625 -33.28125 12.984375 -32.5625 C 11.835938 -31.84375 11.265625 -30.820312 11.265625 -29.5 C 11.265625 -28.175781 11.789062 -27.050781 12.84375 -26.125 C 13.90625 -25.207031 15.226562 -24.53125 16.8125 -24.09375 C 18.40625 -23.65625 20.125 -23.101562 21.96875 -22.4375 C 23.820312 -21.78125 25.539062 -21.082031 27.125 -20.34375 C 28.707031 -19.613281 30.015625 -18.460938 31.046875 -16.890625 C 32.085938 -15.328125 32.609375 -13.4375 32.609375 -11.21875 C 32.609375 -7.738281 31.222656 -4.960938 28.453125 -2.890625 C 25.679688 -0.816406 22.085938 0.21875 17.671875 0.21875 C 14.648438 0.21875 11.722656 -0.34375 8.890625 -1.46875 C 6.054688 -2.601562 3.582031 -4.132812 1.46875 -6.0625 L 4.359375 -11.828125 C 6.359375 -9.984375 8.554688 -8.5625 10.953125 -7.5625 C 13.347656 -6.5625 15.625 -6.0625 17.78125 -6.0625 C 20.125 -6.0625 21.945312 -6.484375 23.25 -7.328125 C 24.550781 -8.179688 25.203125 -9.363281 25.203125 -10.875 C 25.203125 -12.226562 24.671875 -13.367188 23.609375 -14.296875 C 22.554688 -15.222656 21.234375 -15.898438 19.640625 -16.328125 C 18.054688 -16.765625 16.335938 -17.296875 14.484375 -17.921875 C 12.640625 -18.546875 10.925781 -19.207031 9.34375 -19.90625 C 7.757812 -20.601562 6.4375 -21.722656 5.375 -23.265625 C 4.320312 -24.816406 3.796875 -26.6875 3.796875 -28.875 C 3.796875 -32.238281 5.113281 -34.921875 7.75 -36.921875 C 10.394531 -38.921875 13.890625 -39.921875 18.234375 -39.921875 Z M 18.234375 -39.921875 "/></g></g></g><g fill="#03989e" fill-opacity="1"><g transform="translate(225.119703, 269.945356)"><g><path d="M 33.515625 -33.640625 L 11.890625 -33.640625 L 11.890625 -22.9375 L 31.25 -22.9375 L 31.25 -16.9375 L 11.890625 -16.9375 L 11.890625 -6 L 34.203125 -6 L 34.203125 0 L 5.203125 0 L 5.203125 -39.640625 L 33.515625 -39.640625 Z M 33.515625 -33.640625 "/></g></g></g><g fill="#03989e" fill-opacity="1"><g transform="translate(270.753708, 269.945356)"><g><path d="M 32.328125 -19.484375 L 38.171875 -19.484375 L 38.171875 -4.875 C 36.128906 -3.320312 33.71875 -2.070312 30.9375 -1.125 C 28.164062 -0.1875 25.441406 0.28125 22.765625 0.28125 C 16.910156 0.28125 11.972656 -1.648438 7.953125 -5.515625 C 3.929688 -9.390625 1.921875 -14.15625 1.921875 -19.8125 C 1.921875 -25.476562 3.957031 -30.226562 8.03125 -34.0625 C 12.113281 -37.894531 17.15625 -39.8125 23.15625 -39.8125 C 25.945312 -39.8125 28.691406 -39.3125 31.390625 -38.3125 C 34.097656 -37.3125 36.429688 -35.960938 38.390625 -34.265625 L 34.59375 -29.328125 C 31.351562 -32.347656 27.539062 -33.859375 23.15625 -33.859375 C 19.113281 -33.859375 15.695312 -32.5 12.90625 -29.78125 C 10.113281 -27.0625 8.71875 -23.738281 8.71875 -19.8125 C 8.71875 -15.851562 10.125 -12.515625 12.9375 -9.796875 C 15.75 -7.078125 19.175781 -5.71875 23.21875 -5.71875 C 26.269531 -5.71875 29.304688 -6.625 32.328125 -8.4375 Z M 32.328125 -19.484375 "/></g></g></g><g fill="#a6a6a6" fill-opacity="1"><g transform="translate(21.387905, 310.054067)"><g><path d="M 10.890625 -3.171875 L 3.828125 -3.171875 L 2.484375 0 L 0.015625 0 L 6.203125 -14.015625 L 8.640625 -14.015625 L 14.765625 0 L 12.234375 0 Z M 10 -5.265625 L 7.34375 -11.5 L 4.703125 -5.265625 Z M 10 -5.265625 "/></g></g></g><g fill="#a6a6a6" fill-opacity="1"><g transform="translate(41.170828, 310.054067)"><g><path d="M 6.453125 -14.125 C 8.265625 -14.125 9.898438 -13.644531 11.359375 -12.6875 L 10.375 -10.59375 C 8.945312 -11.46875 7.578125 -11.90625 6.265625 -11.90625 C 5.554688 -11.90625 5 -11.773438 4.59375 -11.515625 C 4.1875 -11.265625 3.984375 -10.90625 3.984375 -10.4375 C 3.984375 -9.96875 4.171875 -9.566406 4.546875 -9.234375 C 4.921875 -8.910156 5.390625 -8.671875 5.953125 -8.515625 C 6.515625 -8.367188 7.117188 -8.175781 7.765625 -7.9375 C 8.421875 -7.707031 9.03125 -7.460938 9.59375 -7.203125 C 10.15625 -6.941406 10.617188 -6.53125 10.984375 -5.96875 C 11.347656 -5.414062 11.53125 -4.75 11.53125 -3.96875 C 11.53125 -2.738281 11.039062 -1.753906 10.0625 -1.015625 C 9.082031 -0.285156 7.8125 0.078125 6.25 0.078125 C 5.175781 0.078125 4.140625 -0.117188 3.140625 -0.515625 C 2.140625 -0.921875 1.265625 -1.460938 0.515625 -2.140625 L 1.546875 -4.1875 C 2.253906 -3.53125 3.03125 -3.023438 3.875 -2.671875 C 4.71875 -2.316406 5.523438 -2.140625 6.296875 -2.140625 C 7.117188 -2.140625 7.757812 -2.289062 8.21875 -2.59375 C 8.675781 -2.894531 8.90625 -3.3125 8.90625 -3.84375 C 8.90625 -4.320312 8.71875 -4.722656 8.34375 -5.046875 C 7.976562 -5.378906 7.515625 -5.625 6.953125 -5.78125 C 6.390625 -5.9375 5.78125 -6.125 5.125 -6.34375 C 4.46875 -6.5625 3.859375 -6.789062 3.296875 -7.03125 C 2.742188 -7.28125 2.28125 -7.675781 1.90625 -8.21875 C 1.53125 -8.769531 1.34375 -9.4375 1.34375 -10.21875 C 1.34375 -11.40625 1.804688 -12.351562 2.734375 -13.0625 C 3.671875 -13.769531 4.910156 -14.125 6.453125 -14.125 Z M 6.453125 -14.125 "/></g></g></g><g fill="#a6a6a6" fill-opacity="1"><g transform="translate(58.6313, 310.054067)"><g><path d="M 4.203125 0 L 1.84375 0 L 1.84375 -14.015625 L 4.203125 -14.015625 Z M 4.203125 0 "/></g></g></g><g fill="#a6a6a6" fill-opacity="1"><g transform="translate(69.684982, 310.054067)"><g><path d="M 6.453125 -14.125 C 8.265625 -14.125 9.898438 -13.644531 11.359375 -12.6875 L 10.375 -10.59375 C 8.945312 -11.46875 7.578125 -11.90625 6.265625 -11.90625 C 5.554688 -11.90625 5 -11.773438 4.59375 -11.515625 C 4.1875 -11.265625 3.984375 -10.90625 3.984375 -10.4375 C 3.984375 -9.96875 4.171875 -9.566406 4.546875 -9.234375 C 4.921875 -8.910156 5.390625 -8.671875 5.953125 -8.515625 C 6.515625 -8.367188 7.117188 -8.175781 7.765625 -7.9375 C 8.421875 -7.707031 9.03125 -7.460938 9.59375 -7.203125 C 10.15625 -6.941406 10.617188 -6.53125 10.984375 -5.96875 C 11.347656 -5.414062 11.53125 -4.75 11.53125 -3.96875 C 11.53125 -2.738281 11.039062 -1.753906 10.0625 -1.015625 C 9.082031 -0.285156 7.8125 0.078125 6.25 0.078125 C 5.175781 0.078125 4.140625 -0.117188 3.140625 -0.515625 C 2.140625 -0.921875 1.265625 -1.460938 0.515625 -2.140625 L 1.546875 -4.1875 C 2.253906 -3.53125 3.03125 -3.023438 3.875 -2.671875 C 4.71875 -2.316406 5.523438 -2.140625 6.296875 -2.140625 C 7.117188 -2.140625 7.757812 -2.289062 8.21875 -2.59375 C 8.675781 -2.894531 8.90625 -3.3125 8.90625 -3.84375 C 8.90625 -4.320312 8.71875 -4.722656 8.34375 -5.046875 C 7.976562 -5.378906 7.515625 -5.625 6.953125 -5.78125 C 6.390625 -5.9375 5.78125 -6.125 5.125 -6.34375 C 4.46875 -6.5625 3.859375 -6.789062 3.296875 -7.03125 C 2.742188 -7.28125 2.28125 -7.675781 1.90625 -8.21875 C 1.53125 -8.769531 1.34375 -9.4375 1.34375 -10.21875 C 1.34375 -11.40625 1.804688 -12.351562 2.734375 -13.0625 C 3.671875 -13.769531 4.910156 -14.125 6.453125 -14.125 Z M 6.453125 -14.125 "/></g></g></g><g fill="#a6a6a6" fill-opacity="1"><g transform="translate(87.145453, 310.054067)"><g><path d="M 11.421875 -11.90625 L 6.96875 -11.90625 L 6.96875 0 L 4.609375 0 L 4.609375 -11.90625 L 0.1875 -11.90625 L 0.1875 -14.015625 L 11.421875 -14.015625 Z M 11.421875 -11.90625 "/></g></g></g><g fill="#a6a6a6" fill-opacity="1"><g transform="translate(103.744993, 310.054067)"><g><path d="M 11.859375 -11.90625 L 4.203125 -11.90625 L 4.203125 -8.109375 L 11.0625 -8.109375 L 11.0625 -5.984375 L 4.203125 -5.984375 L 4.203125 -2.125 L 12.09375 -2.125 L 12.09375 0 L 1.84375 0 L 1.84375 -14.015625 L 11.859375 -14.015625 Z M 11.859375 -11.90625 "/></g></g></g><g fill="#a6a6a6" fill-opacity="1"><g transform="translate(121.886187, 310.054067)"><g><path d="M 14 0 L 11.671875 0 L 4.203125 -10.0625 L 4.203125 0 L 1.84375 0 L 1.84375 -14.015625 L 4.171875 -14.015625 L 11.671875 -3.953125 L 11.671875 -14.015625 L 14 -14.015625 Z M 14 0 "/></g></g></g><g fill="#a6a6a6" fill-opacity="1"><g transform="translate(142.750243, 310.054067)"><g><path d="M 8.046875 -14.078125 C 9.035156 -14.078125 10 -13.882812 10.9375 -13.5 C 11.882812 -13.125 12.695312 -12.597656 13.375 -11.921875 L 12 -10.203125 C 11.488281 -10.742188 10.882812 -11.175781 10.1875 -11.5 C 9.5 -11.820312 8.800781 -11.984375 8.09375 -11.984375 C 6.6875 -11.984375 5.5 -11.503906 4.53125 -10.546875 C 3.5625 -9.585938 3.078125 -8.421875 3.078125 -7.046875 C 3.078125 -5.660156 3.5625 -4.488281 4.53125 -3.53125 C 5.5 -2.582031 6.6875 -2.109375 8.09375 -2.109375 C 9.550781 -2.109375 10.851562 -2.660156 12 -3.765625 L 13.40625 -2.203125 C 12.675781 -1.492188 11.832031 -0.929688 10.875 -0.515625 C 9.914062 -0.109375 8.945312 0.09375 7.96875 0.09375 C 5.914062 0.09375 4.1875 -0.585938 2.78125 -1.953125 C 1.382812 -3.316406 0.6875 -5.007812 0.6875 -7.03125 C 0.6875 -9.019531 1.394531 -10.691406 2.8125 -12.046875 C 4.238281 -13.398438 5.984375 -14.078125 8.046875 -14.078125 Z M 8.046875 -14.078125 "/></g></g></g><g fill="#a6a6a6" fill-opacity="1"><g transform="translate(161.712307, 310.054067)"><g><path d="M 4.203125 0 L 1.84375 0 L 1.84375 -14.015625 L 4.203125 -14.015625 Z M 4.203125 0 "/></g></g></g><g fill="#a6a6a6" fill-opacity="1"><g transform="translate(172.765995, 310.054067)"><g><path d="M 10.890625 -3.171875 L 3.828125 -3.171875 L 2.484375 0 L 0.015625 0 L 6.203125 -14.015625 L 8.640625 -14.015625 L 14.765625 0 L 12.234375 0 Z M 10 -5.265625 L 7.34375 -11.5 L 4.703125 -5.265625 Z M 10 -5.265625 "/></g></g></g><g fill="#a6a6a6" fill-opacity="1"><g transform="translate(192.548925, 310.054067)"><g/></g></g><g fill="#a6a6a6" fill-opacity="1"><g transform="translate(202.721671, 310.054067)"><g><path d="M 6.453125 -14.125 C 8.265625 -14.125 9.898438 -13.644531 11.359375 -12.6875 L 10.375 -10.59375 C 8.945312 -11.46875 7.578125 -11.90625 6.265625 -11.90625 C 5.554688 -11.90625 5 -11.773438 4.59375 -11.515625 C 4.1875 -11.265625 3.984375 -10.90625 3.984375 -10.4375 C 3.984375 -9.96875 4.171875 -9.566406 4.546875 -9.234375 C 4.921875 -8.910156 5.390625 -8.671875 5.953125 -8.515625 C 6.515625 -8.367188 7.117188 -8.175781 7.765625 -7.9375 C 8.421875 -7.707031 9.03125 -7.460938 9.59375 -7.203125 C 10.15625 -6.941406 10.617188 -6.53125 10.984375 -5.96875 C 11.347656 -5.414062 11.53125 -4.75 11.53125 -3.96875 C 11.53125 -2.738281 11.039062 -1.753906 10.0625 -1.015625 C 9.082031 -0.285156 7.8125 0.078125 6.25 0.078125 C 5.175781 0.078125 4.140625 -0.117188 3.140625 -0.515625 C 2.140625 -0.921875 1.265625 -1.460938 0.515625 -2.140625 L 1.546875 -4.1875 C 2.253906 -3.53125 3.03125 -3.023438 3.875 -2.671875 C 4.71875 -2.316406 5.523438 -2.140625 6.296875 -2.140625 C 7.117188 -2.140625 7.757812 -2.289062 8.21875 -2.59375 C 8.675781 -2.894531 8.90625 -3.3125 8.90625 -3.84375 C 8.90625 -4.320312 8.71875 -4.722656 8.34375 -5.046875 C 7.976562 -5.378906 7.515625 -5.625 6.953125 -5.78125 C 6.390625 -5.9375 5.78125 -6.125 5.125 -6.34375 C 4.46875 -6.5625 3.859375 -6.789062 3.296875 -7.03125 C 2.742188 -7.28125 2.28125 -7.675781 1.90625 -8.21875 C 1.53125 -8.769531 1.34375 -9.4375 1.34375 -10.21875 C 1.34375 -11.40625 1.804688 -12.351562 2.734375 -13.0625 C 3.671875 -13.769531 4.910156 -14.125 6.453125 -14.125 Z M 6.453125 -14.125 "/></g></g></g><g fill="#a6a6a6" fill-opacity="1"><g transform="translate(220.182147, 310.054067)"><g><path d="M 10.890625 -3.171875 L 3.828125 -3.171875 L 2.484375 0 L 0.015625 0 L 6.203125 -14.015625 L 8.640625 -14.015625 L 14.765625 0 L 12.234375 0 Z M 10 -5.265625 L 7.34375 -11.5 L 4.703125 -5.265625 Z M 10 -5.265625 "/></g></g></g><g fill="#a6a6a6" fill-opacity="1"><g transform="translate(239.965077, 310.054067)"><g><path d="M 14 0 L 11.671875 0 L 4.203125 -10.0625 L 4.203125 0 L 1.84375 0 L 1.84375 -14.015625 L 4.171875 -14.015625 L 11.671875 -3.953125 L 11.671875 -14.015625 L 14 -14.015625 Z M 14 0 "/></g></g></g><g fill="#a6a6a6" fill-opacity="1"><g transform="translate(260.829145, 310.054067)"><g><path d="M 4.203125 0 L 1.84375 0 L 1.84375 -14.015625 L 4.203125 -14.015625 Z M 4.203125 0 "/></g></g></g><g fill="#a6a6a6" fill-opacity="1"><g transform="translate(271.882833, 310.054067)"><g><path d="M 11.421875 -11.90625 L 6.96875 -11.90625 L 6.96875 0 L 4.609375 0 L 4.609375 -11.90625 L 0.1875 -11.90625 L 0.1875 -14.015625 L 11.421875 -14.015625 Z M 11.421875 -11.90625 "/></g></g></g><g fill="#a6a6a6" fill-opacity="1"><g transform="translate(288.482378, 310.054067)"><g><path d="M 10.890625 -3.171875 L 3.828125 -3.171875 L 2.484375 0 L 0.015625 0 L 6.203125 -14.015625 L 8.640625 -14.015625 L 14.765625 0 L 12.234375 0 Z M 10 -5.265625 L 7.34375 -11.5 L 4.703125 -5.265625 Z M 10 -5.265625 "/></g></g></g><g fill="#a6a6a6" fill-opacity="1"><g transform="translate(308.265307, 310.054067)"><g><path d="M 10.734375 0 L 8.171875 -4.25 C 8.035156 -4.238281 7.820312 -4.234375 7.53125 -4.234375 L 4.203125 -4.234375 L 4.203125 0 L 1.84375 0 L 1.84375 -14.015625 L 7.53125 -14.015625 C 9.320312 -14.015625 10.710938 -13.597656 11.703125 -12.765625 C 12.691406 -11.929688 13.1875 -10.753906 13.1875 -9.234375 C 13.1875 -8.109375 12.929688 -7.160156 12.421875 -6.390625 C 11.921875 -5.617188 11.207031 -5.050781 10.28125 -4.6875 L 13.421875 0 Z M 4.203125 -6.34375 L 7.53125 -6.34375 C 9.800781 -6.34375 10.9375 -7.285156 10.9375 -9.171875 C 10.9375 -10.992188 9.800781 -11.90625 7.53125 -11.90625 L 4.203125 -11.90625 Z M 4.203125 -6.34375 "/></g></g></g><g fill="#a6a6a6" fill-opacity="1"><g transform="translate(327.747919, 310.054067)"><g><path d="M 4.203125 0 L 1.84375 0 L 1.84375 -14.015625 L 4.203125 -14.015625 Z M 4.203125 0 "/></g></g></g><g fill="#a6a6a6" fill-opacity="1"><g transform="translate(338.801607, 310.054067)"><g><path d="M 10.890625 -3.171875 L 3.828125 -3.171875 L 2.484375 0 L 0.015625 0 L 6.203125 -14.015625 L 8.640625 -14.015625 L 14.765625 0 L 12.234375 0 Z M 10 -5.265625 L 7.34375 -11.5 L 4.703125 -5.265625 Z M 10 -5.265625 "/></g></g></g></svg>